PathFileType	4	(X/Y/Z)	/Users/niels/Desktop/University/Third Semester/Perception and Action/Exam/Gymnastics Motion Tracking/Code for Gym Tracking/Analyzed Data/Webcam_Backflip/id19_4_trajectory_Sports2D/id19_4_trajectory_Sports2D_px_person00.trc
DataRate	CameraRate	NumFrames	NumMarkers	Units	OrigDataRate	OrigDataStartFrame	OrigNumFrames
29.714285714285715	29.714285714285715	9	22	m	29.714285714285715	13	105
Frame#	Time	Hip			RHip			RKnee			RAnkle			RBigToe			RSmallToe			RHeel			LHip			LKnee			LAnkle			LBigToe			LSmallToe			LHeel			Neck			Head			Nose			RShoulder			RElbow			RWrist			LShoulder			LElbow			LWrist		
		X1	Y1	Z1	X2	Y2	Z2	X3	Y3	Z3	X4	Y4	Z4	X5	Y5	Z5	X6	Y6	Z6	X7	Y7	Z7	X8	Y8	Z8	X9	Y9	Z9	X10	Y10	Z10	X11	Y11	Z11	X12	Y12	Z12	X13	Y13	Z13	X14	Y14	Z14	X15	Y15	Z15	X16	Y16	Z16	X17	Y17	Z17	X18	Y18	Z18	X19	Y19	Z19	X20	Y20	Z20	X21	Y21	Z21	X22	Y22	Z22
13	0.4375	0.9839434955514543	-0.7125885891553018	0.0	0.9831778919754717	-0.7110492508714031	0.0	0.9944991084145657	-0.8300854059358358	0.0	0.9780677360186844	-0.9616573471117338	0.0	1.029297232760563	-0.9816245919812581	0.0	1.0189883277515948	-0.9866795651682589	0.0	0.9674574166235166	-0.981959927125394	0.0	0.9918990738733734	-0.7104202799288417	0.0	0.9981951163251118	-0.8290492718600426	0.0	0.9807480272086714	-0.9546303830977755	0.0	1.0298176945048647	-0.9771462151424	0.0	1.0251706290431375	-0.9743482181838907	0.0	0.9655415513492734	-0.9743359610169829	0.0	1.014417876870896	-0.5263455189882921	0.0	1.0618513856525356	-0.45935953129604	0.0	1.0603758942687134	-0.5102841740999388	0.0	0.9964012908610879	-0.5409613092903809	0.0	0.9845402528407527	-0.6137591052739413	0.0	1.0119651834427768	-0.6730196203958364	0.0	1.0096925972104074	-0.545140443247174	0.0	1.0067953672193175	-0.6122433715297176	0.0	1.030552036991627	-0.6594019116701146	0.0
14	0.47115384615384615	0.984998747196293	-0.7126438911549331	0.0	0.98301705652465	-0.7107044206550195	0.0	0.9920026052210819	-0.8314728204710323	0.0	0.977735443775219	-0.9622144787157435	0.0	1.0287583027147227	-0.9827955808055175	0.0	1.0180291703325401	-0.988056545302138	0.0	0.967918914996295	-0.9827693310093093	0.0	0.992397611392219	-0.7105668787054475	0.0	0.9960007351341669	-0.8304317680120674	0.0	0.9804369602040598	-0.9556626501774382	0.0	1.0289825225735236	-0.9785677425138595	0.0	1.0245304703725036	-0.975633633970688	0.0	0.965514755873392	-0.9755376944097776	0.0	1.017223017294809	-0.5271337135807301	0.0	1.0673270914875512	-0.46112375525848137	0.0	1.064422444307644	-0.5115579710900051	0.0	0.9988865423586024	-0.5397543217835903	0.0	0.9723483718621944	-0.6047409201653335	0.0	0.9845761725208637	-0.6541832292360643	0.0	1.0123281325509703	-0.5444032136205597	0.0	0.9926742901964125	-0.6039886874166768	0.0	1.0008047372092748	-0.643097851829977	0.0
15	0.5048076923076923	0.9854435529684734	-0.7115154918256248	0.0	0.9821781107119834	-0.7093035393259821	0.0	0.9892646014764636	-0.8323490046700294	0.0	0.9772470037902817	-0.9623014198125269	0.0	1.0279071730979423	-0.9831377682637555	0.0	1.016724204790667	-0.9886731509487093	0.0	0.9680082980895709	-0.9828620625270009	0.0	0.9927815234270307	-0.7096213690342237	0.0	0.993498778583137	-0.8311955861565432	0.0	0.9798661412275299	-0.9559295598555498	0.0	1.0281795586331193	-0.9787817772470946	0.0	1.0240729124488384	-0.9757945447697918	0.0	0.9654333197111143	-0.9758909761778582	0.0	1.0198374021097647	-0.5273645550610956	0.0	1.0725952444790536	-0.46236094526782023	0.0	1.0682790265798336	-0.5121156453123534	0.0	1.001144637392007	-0.5376996026961967	0.0	0.9626118516257146	-0.5923946358053186	0.0	0.9591243746063224	-0.6289706755997907	0.0	1.0147784424235533	-0.5430267930428957	0.0	0.9805896454075793	-0.592646552859825	0.0	0.9716643146921737	-0.6218923817805664	0.0
16	0.5384615384615384	0.985044542897832	-0.7089344860370846	0.0	0.9807963677453013	-0.7065282941542249	0.0	0.9865141920986663	-0.8322490459361327	0.0	0.9766984923270757	-0.9615865159018231	0.0	1.0269136439495092	-0.9825173779717603	0.0	1.015286655474079	-0.9883272431678899	0.0	0.9678116364572072	-0.9819416583970678	0.0	0.9926199529022836	-0.7071594457165133	0.0	0.9907336880890567	-0.8309537997979614	0.0	0.9790673596554379	-0.9552182374468201	0.0	1.0273477648087668	-0.9775955996863072	0.0	1.0236970517412447	-0.9747445532810368	0.0	0.9653609511504772	-0.9751990291153435	0.0	1.0222475000024434	-0.5268554233620816	0.0	1.07794354329893	-0.4630170812443844	0.0	1.071870045659196	-0.511937393968952	0.0	1.0033894901163312	-0.534726984150402	0.0	0.9564081883629404	-0.5775390241914728	0.0	0.9371907943542788	-0.6004490939012748	0.0	1.016849871977244	-0.5408615523024282	0.0	0.9723250069387998	-0.5790664170479028	0.0	0.9471628587281403	-0.5979991442679309	0.0
17	0.5721153846153846	0.9837041911791745	-0.7048392166055345	0.0	0.9789422561954624	-0.7022391213346462	0.0	0.9840860751980973	-0.8307864588742602	0.0	0.9762333828058005	-0.9597106269139092	0.0	1.0260545819673972	-0.9808863350307104	0.0	1.0139797427898452	-0.9868529416632834	0.0	0.9674535138245581	-0.979735395045375	0.0	0.991583169600125	-0.7030463362208589	0.0	0.9879128619724368	-0.8293784417442323	0.0	0.9782107913868904	-0.9532962105001865	0.0	1.0265143825903114	-0.9750629269670891	0.0	1.0233620482936134	-0.9724638806487278	0.0	0.9652898755747161	-0.9732034404301427	0.0	1.0244191794974968	-0.5255771255572665	0.0	1.083598028281693	-0.4631873192704794	0.0	1.0751968082919157	-0.5112080831659743	0.0	1.0058055375910724	-0.5309979022707478	0.0	0.9534899368291891	-0.5618842943988511	0.0	0.9197702837455115	-0.5726606272038144	0.0	1.0183436402050299	-0.5377975503225766	0.0	0.9678670328037821	-0.5649459694606869	0.0	0.929909117664614	-0.5745986617938669	0.0
18	0.6057692307692307	0.9814290668610393	-0.6994396419466447	0.0	0.9765550915299827	-0.696612595112659	0.0	0.9823447966657288	-0.8277692923030192	0.0	0.9759754943480283	-0.9564559933059197	0.0	1.025616196919124	-0.9782296824350717	0.0	1.0130562992696555	-0.984164713754315	0.0	0.9670459410036822	-0.9761280333480377	0.0	0.9895361941053475	-0.6975409119876973	0.0	0.9853945322147006	-0.8262844064489229	0.0	0.9775222695941429	-0.9499809183570489	0.0	1.025826707481677	-0.9714026881055401	0.0	1.0231490935129535	-0.968961229764103	0.0	0.9651369619667296	-0.9696911573207706	0.0	1.0263947827876787	-0.5237085573631655	0.0	1.0895905785183964	-0.4631260772381351	0.0	1.078411313213656	-0.5102803123414059	0.0	1.0084881407671327	-0.5269158301644727	0.0	0.9524576566299862	-0.5473641500587854	0.0	0.9068413652051288	-0.5491774877951316	0.0	1.019305271183321	-0.5339671864566282	0.0	0.9659861895034049	-0.5522330349577743	0.0	0.9204945391334188	-0.5549872879940912	0.0
19	0.6394230769230769	0.978291593015621	-0.6931746340661126	0.0	0.973492337622542	-0.6901140945625975	0.0	0.9816709767777427	-0.8232018756790191	0.0	0.9759962053490197	-0.9518397608254335	0.0	1.0257862826725894	-0.9744920376138558	0.0	1.0127186590349355	-0.9802370990818152	0.0	0.9667036203191706	-0.9712384234820616	0.0	0.9865463087065193	-0.6911620896940706	0.0	0.9836799528282648	-0.8216351977493692	0.0	0.9771945888414649	-0.9451755000837647	0.0	1.0254792931756689	-0.9668018266111741	0.0	1.0232159710267077	-0.9641697585774327	0.0	0.9648230759568938	-0.9645654193391404	0.0	1.028399621385805	-0.5216088336480426	0.0	1.095735467450267	-0.4632497337311573	0.0	1.0817409132577156	-0.5095528379428533	0.0	1.011498926370545	-0.5230694521719675	0.0	0.951814007670369	-0.535358137356107	0.0	0.8974020303123842	-0.5320424599428916	0.0	1.020095522285643	-0.5298473338682609	0.0	0.9655479515299252	-0.5423314379072051	0.0	0.9180704011962064	-0.5415866757289025	0.0
20	0.673076923076923	0.9743933660155789	-0.6866078235913252	0.0	0.969599689421265	-0.6833355676331827	0.0	0.9824744650247997	-0.8172222668324629	0.0	0.9763182036677959	-0.9460472406875531	0.0	1.026558233243606	-0.9695869262846802	0.0	1.013036781519076	-0.9750673530172773	0.0	0.9665205326702131	-0.9653212757861444	0.0	0.9828158265642081	-0.6845023831389655	0.0	0.9833742077396488	-0.8154956666286476	0.0	0.9773311183048421	-0.9388705798173133	0.0	1.0256246441432544	-0.9613183034038504	0.0	1.0236770299419173	-0.9579497739165551	0.0	0.9643103103639094	-0.9578695716540137	0.0	1.0308022395641256	-0.5197744716443801	0.0	1.1016830493614658	-0.464058907362052	0.0	1.0853449052261688	-0.5093688414500316	0.0	1.0148408505495423	-0.5201672092689369	0.0	0.9506881963419312	-0.5266335157270611	0.0	0.8899698442775063	-0.5218431853197706	0.0	1.0212522027258815	-0.5262001831329832	0.0	0.9659960814940205	-0.5359214964138926	0.0	0.9209672304795513	-0.5354927965318633	0.0
21	0.7067307692307692	0.9698665377550687	-0.6803818469862526	0.0	0.9648133339851986	-0.6769328661820592	0.0	0.9851216292021386	-0.8100888444474466	0.0	0.9769008153950397	-0.9393118153770844	0.0	1.0276812068439551	-0.9634988402372615	0.0	1.0138689087287276	-0.9686938782803476	0.0	0.9665011697615739	-0.9585812710579991	0.0	0.9786127984220035	-0.6782178513118857	0.0	0.9850774990218928	-0.8080392523156283	0.0	0.9779303896427798	-0.9311842811161165	0.0	1.0263268879462497	-0.9549741297513337	0.0	1.0244683749897476	-0.9502509251978873	0.0	0.9636317877630133	-0.949807928588907	0.0	1.0338555629390578	-0.518814949982536	0.0	1.1070166081793256	-0.4659896744446671	0.0	1.0892347702565923	-0.51001914024266	0.0	1.0183465881233023	-0.5189525017947157	0.0	0.9488114234850806	-0.5217198117630668	0.0	0.8831050607240798	-0.5183254201352558	0.0	1.0231530049109192	-0.5239038330580288	0.0	0.9668054880219269	-0.5332667944670894	0.0	0.9265524733305074	-0.536515957274869	0.0
